HIERARCHY
ROOT reference
{
  OFFSET 0 0 0
  CHANNELS 6 Xposition Yposition Zposition Zrotation Xrotation Yrotation
  JOINT Hips
  {
    OFFSET 52.838 88.992 -41.681
    CHANNELS 6 Xposition Yposition Zposition Zrotation Xrotation Yrotation
    JOINT Spine
    {
      OFFSET 0 8.25043 0
      CHANNELS 6 Xposition Yposition Zposition Zrotation Xrotation Yrotation
      JOINT Spine1
      {
        OFFSET 0 26.9735 0
        CHANNELS 6 Xposition Yposition Zposition Zrotation Xrotation Yrotation
        JOINT Neck
        {
          OFFSET 0 26.8627 2.44206
          CHANNELS 6 Xposition Yposition Zposition Zrotation Xrotation Yrotation
          JOINT Head
          {
            OFFSET 0 14.0861 -2.0123
            CHANNELS 6 Xposition Yposition Zposition Zrotation Xrotation Yrotation
            End Site
            {
              OFFSET 0 25.1537 0
            }
          }
        }
        JOINT LeftShoulder
        {
          OFFSET 4.03461 23.8974 -0.31355
          CHANNELS 6 Xposition Yposition Zposition Zrotation Xrotation Yrotation
          JOINT LeftArm
          {
            OFFSET 14.6104 0 0
            CHANNELS 6 Xposition Yposition Zposition Zrotation Xrotation Yrotation
            JOINT LeftForeArm
            {
              OFFSET 28.8903 0 0
              CHANNELS 6 Xposition Yposition Zposition Zrotation Xrotation Yrotation
              JOINT LeftHand
              {
                OFFSET 28.8168 0 0
                CHANNELS 6 Xposition Yposition Zposition Zrotation Xrotation Yrotation
                End Site
                {
                  OFFSET 15.0922 0 0
                }
              }
            }
          }
        }
        JOINT RightShoulder
        {
          OFFSET -4.01401 23.8974 -0.31355
          CHANNELS 6 Xposition Yposition Zposition Zrotation Xrotation Yrotation
          JOINT RightArm
          {
            OFFSET -14.6104 0 0
            CHANNELS 6 Xposition Yposition Zposition Zrotation Xrotation Yrotation
            JOINT RightForeArm
            {
              OFFSET -28.8903 0 0
              CHANNELS 6 Xposition Yposition Zposition Zrotation Xrotation Yrotation
              JOINT RightHand
              {
                OFFSET -28.8168 0 0
                CHANNELS 6 Xposition Yposition Zposition Zrotation Xrotation Yrotation
                End Site
                {
                  OFFSET -15.0922 0 0
                }
              }
            }
          }
        }
      }
    }
    JOINT LeftUpLeg
    {
      OFFSET 10.0615 0 0
      CHANNELS 6 Xposition Yposition Zposition Zrotation Xrotation Yrotation
      JOINT LeftLeg
      {
        OFFSET 0 -36.0896 0
        CHANNELS 6 Xposition Yposition Zposition Zrotation Xrotation Yrotation
        JOINT LeftFoot
        {
          OFFSET 0 -47.1136 0
          CHANNELS 6 Xposition Yposition Zposition Zrotation Xrotation Yrotation
          JOINT LeftToeBase
          {
            OFFSET 0 -6.53997 15.0922
            CHANNELS 6 Xposition Yposition Zposition Zrotation Xrotation Yrotation
            End Site
            {
              OFFSET 0 0 4.0246
            }
          }
        }
      }
    }
    JOINT RightUpLeg
    {
      OFFSET -10.0615 0 0
      CHANNELS 6 Xposition Yposition Zposition Zrotation Xrotation Yrotation
      JOINT RightLeg
      {
        OFFSET 0 -36.0896 0
        CHANNELS 6 Xposition Yposition Zposition Zrotation Xrotation Yrotation
        JOINT RightFoot
        {
          OFFSET 0 -47.1136 0
          CHANNELS 6 Xposition Yposition Zposition Zrotation Xrotation Yrotation
          JOINT RightToeBase
          {
            OFFSET 0 -6.53997 15.0922
            CHANNELS 6 Xposition Yposition Zposition Zrotation Xrotation Yrotation
            End Site
            {
              OFFSET 0 0 4.0246
            }
          }
        }
      }
    }
  }
}
MOTION
Frames:	9
Frame Time:	0.004
0 0 0 0 0 -0 -4.9591 82.5622 -208.656 -0.886934 1.14468 2.82228 -1.77636e-015 8.25043 0 0.162352 -5.66385 1.49631 0 26.9735 0 -2.72694 -3.10321 1.4138 1.77636e-015 26.8627 2.44206 7.17092 23.9741 11.6882 0 14.0861 -2.0123 -8.33704 7.02568 12.0482 4.03461 23.8974 -0.31355 19.3932 -1.84873 -0.948723 14.6104 0 2.84217e-014 -22.8625 -8.78495 -2.89916 28.8903 0 0 -2.73709 8.11733 3.54502 28.8168 0 2.84217e-014 22.1085 7.42085 -4.02979 -4.01401 23.8974 -0.31355 -15.8819 -1.85059 1.9673 -14.6104 0 -2.84217e-014 18.8439 6.4841 4.24357 -28.8903 0 0 -9.09342 -4.94321 2.73118 -28.8168 2.84217e-014 -2.84217e-014 -10.7171 -2.82334 -20.1267 10.0615 -1.42109e-014 0 5.20203 0.522088 -7.81785 0 -36.0896 2.84217e-014 -4.67817 11.8434 -24.2463 0 -47.1136 0 14.4726 -14.055 39.6431 0 -6.53997 15.0922 -1.09332e-015 -7.95139e-016 1.59028e-015 -10.0615 0 -2.84217e-014 -4.19355 1.06642 3.54573 0 -36.0896 0 4.86439 9.62517 2.22628 3.55271e-015 -47.1136 0 -6.39684 -18.2501 -11.5536 0 -6.53997 15.0922 -4.72114e-016 0 1.98785e-016 
0 0 0 0 0 -0 -4.96473 82.5622 -208.642 -0.887883 1.16392 2.8223 -8.88178e-016 8.25043 0 0.162352 -5.66385 1.49631 0 26.9735 -2.84217e-014 -2.71457 -3.10321 1.4138 -1.77636e-015 26.8627 2.44206 7.15672 23.9741 11.6882 1.42109e-014 14.0861 -2.0123 -8.37149 7.02592 12.0392 4.03461 23.8974 -0.31355 19.3742 -1.82336 -0.942323 14.6104 0 0 -22.8486 -8.84332 -2.92997 28.8903 -2.84217e-014 0 -2.73878 8.13831 3.54786 28.8168 5.68434e-014 0 22.0999 7.44093 -4.02997 -4.01401 23.8974 -0.31355 -15.9069 -1.85059 1.9673 -14.6104 0 -2.84217e-014 18.8395 6.44544 4.26362 -28.8903 0 0 -9.10707 -4.90371 2.71985 -28.8168 0 -2.84217e-014 -10.6101 -2.80812 -20.0779 10.0615 -1.42109e-014 0 5.20203 0.522088 -7.81785 -3.55271e-015 -36.0896 0 -4.66167 11.8362 -24.2389 0 -47.1136 0 14.4559 -14.055 39.6431 0 -6.53997 15.0922 -1.09332e-015 0 -0 -10.0615 0 -2.84217e-014 -4.19871 1.0664 3.56903 0 -36.0896 0 4.87883 9.61369 2.2262 -3.55271e-015 -47.1136 0 -6.40394 -18.2487 -11.5763 -3.55271e-015 -6.53997 15.0922 7.70291e-016 0 1.98785e-016 
0 0 0 0 0 -0 -4.96985 82.5622 -208.634 -0.88811 1.16852 2.8223 0 8.25043 0 0.162352 -5.66385 1.49631 0 26.9735 0 -2.71386 -3.10321 1.4138 -3.55271e-015 26.8627 2.44206 7.1291 23.9734 11.6875 0 14.0861 -2.0123 -8.34788 7.02594 12.0382 4.03461 23.8974 -0.31355 19.3794 -1.82961 -0.938082 14.6104 0 -2.84217e-014 -22.8582 -8.81304 -2.94343 28.8903 0 2.84217e-014 -2.73929 8.12929 3.55534 28.8168 -2.84217e-014 0 22.0574 7.43502 -4.02992 -4.01401 23.8974 -0.31355 -15.9151 -1.85059 1.9673 -14.6104 2.84217e-014 0 18.8329 6.41509 4.26714 -28.8903 -2.84217e-014 0 -9.08804 -4.88549 2.7321 -28.8168 0 2.84217e-014 -10.6497 -2.77987 -20.1028 10.0615 -1.42109e-014 2.84217e-014 5.21317 0.527932 -7.81786 3.55271e-015 -36.0896 0 -4.66443 11.8274 -24.2226 0 -47.1136 5.68434e-014 14.4519 -14.0564 39.6358 0 -6.53997 15.0922 9.93923e-017 2.38542e-015 -1.59028e-015 -10.0615 0 0 -4.18443 1.06639 3.57754 0 -36.0896 0 4.87607 9.60642 2.22615 0 -47.1136 0 -6.41028 -18.2475 -11.5965 3.55271e-015 -6.53997 15.0922 5.2181e-016 1.59028e-015 1.98785e-016 
0 0 0 0 0 -0 -4.97245 82.5622 -208.624 -0.878347 1.17271 2.825 -1.77636e-015 8.25043 2.84217e-014 0.162314 -5.6624 1.49631 0 26.9735 -2.84217e-014 -2.71856 -3.1019 1.4138 -1.77636e-015 26.8627 2.44206 7.13797 23.9849 11.6864 0 14.0861 -2.0123 -8.38096 7.02599 12.0363 4.03461 23.8974 -0.31355 19.3755 -1.82911 -0.931321 14.6104 0 -2.84217e-014 -22.8505 -8.85249 -2.96484 28.8903 -2.84217e-014 -2.84217e-014 -2.75355 8.13901 3.56308 28.8168 0 0 22.0604 7.44418 -4.03551 -4.01401 23.8974 -0.31355 -15.9231 -1.85059 1.9673 -14.6104 0 0 18.8283 6.43405 4.2657 -28.8903 0 2.84217e-014 -9.08403 -4.88826 2.733 -28.8168 -2.84217e-014 -2.84217e-014 -10.6686 -2.77963 -20.0994 10.0615 0 2.84217e-014 5.19395 0.538859 -7.82647 -1.77636e-015 -36.0896 2.84217e-014 -4.65116 11.8121 -24.2292 1.42109e-014 -47.1136 0 14.4467 -14.0443 39.6563 0 -6.53997 15.0922 -1.98785e-016 7.95139e-016 -0 -10.0615 -1.42109e-014 0 -4.19766 1.06639 3.57566 0 -36.0896 -2.84217e-014 4.87806 9.60315 2.22705 7.10543e-015 -47.1136 0 -6.41595 -18.2545 -11.5812 0 -6.53997 15.0922 1.21756e-015 0 -3.97569e-016 
0 0 0 0 0 -0 -4.97428 82.5622 -208.618 -0.890521 1.19231 2.82574 0 8.25043 2.84217e-014 0.176487 -5.67712 1.49635 1.77636e-015 26.9735 0 -2.72546 -3.10218 1.4138 3.55271e-015 26.8627 2.44206 7.12183 23.9847 11.6841 0 14.0861 -2.0123 -8.35782 7.02579 12.0344 4.03461 23.8974 -0.31355 19.3724 -1.82668 -0.926761 14.6104 -2.84217e-014 -2.84217e-014 -22.8458 -8.83989 -2.97433 28.8903 0 0 -2.77231 8.07443 3.54869 28.8168 0 2.84217e-014 22.2239 7.38257 -3.99058 -4.01401 23.8974 -0.31355 -15.9223 -1.84932 1.96955 -14.6104 0 0 18.8134 6.42848 4.26912 -28.8903 -2.84217e-014 0 -9.02439 -4.92119 2.74561 -28.8168 2.84217e-014 0 -11.0642 -2.72998 -20.2237 10.0615 -1.42109e-014 2.84217e-014 5.20861 0.521211 -7.83239 0 -36.0896 -2.84217e-014 -4.6462 11.8153 -24.2548 0 -47.1136 0 14.4417 -14.0506 39.6806 0 -6.53997 15.0922 1.59028e-015 1.59028e-015 -1.59028e-015 -10.0615 0 2.84217e-014 -4.1821 1.06636 3.59857 0 -36.0896 0 4.88506 9.59019 2.205 -7.10543e-015 -47.1136 2.84217e-014 -6.42571 -18.2374 -11.5872 3.55271e-015 -6.53997 15.0922 1.2424e-015 1.59028e-015 -0 
0 0 0 0 0 -0 -4.97475 82.5622 -208.609 -0.88431 1.19006 2.81562 0 8.25043 0 0.177465 -5.66535 1.50176 1.77636e-015 26.9735 0 -2.73559 -3.11123 1.41869 0 26.8627 2.44206 7.12519 24.0063 11.6836 1.42109e-014 14.0861 -2.0123 -8.38556 7.00549 12.0318 4.03461 23.8974 -0.31355 19.3823 -1.82263 -0.935732 14.6104 0 2.84217e-014 -22.8449 -8.84779 -2.97244 28.8903 0 2.84217e-014 -2.78311 8.08683 3.55005 28.8168 0 0 22.1451 7.39854 -3.98873 -4.01401 23.8974 -0.31355 -15.9264 -1.84794 1.97455 -14.6104 0 -2.84217e-014 18.8035 6.39324 4.27206 -28.8903 -2.84217e-014 -2.84217e-014 -9.00825 -4.89685 2.75484 -28.8168 -2.84217e-014 -2.84217e-014 -11.0565 -2.70702 -20.2197 10.0615 0 2.84217e-014 5.20062 0.540016 -7.86163 1.77636e-015 -36.0896 2.84217e-014 -4.65313 11.7978 -24.2112 -1.42109e-014 -47.1136 0 14.4436 -14.0422 39.6822 0 -6.53997 15.0922 2.98177e-016 -7.95139e-016 1.59028e-015 -10.0615 -2.84217e-014 -2.84217e-014 -4.18928 1.06838 3.59156 0 -36.0896 0 4.88098 9.59983 2.23066 3.55271e-015 -47.1136 0 -6.40087 -18.2469 -11.5958 3.55271e-015 -6.53997 15.0922 -2.06239e-015 -7.95139e-016 1.98785e-016 
0 0 0 0 0 -0 -4.98692 82.5622 -208.631 -0.922437 1.33696 2.91326 -8.88178e-016 8.25043 2.84217e-014 0.190956 -5.78946 1.45538 0 26.9735 0 -2.73212 -3.12983 1.37109 1.77636e-015 26.8627 2.44206 7.12426 24.0102 11.6813 0 14.0861 -2.0123 -8.38493 7.01268 12.0298 4.03461 23.8974 -0.31355 19.3739 -1.81855 -0.931989 14.6104 0 2.84217e-014 -22.835 -8.8081 -2.9876 28.8903 0 -5.68434e-014 -2.73273 8.08846 3.52177 28.8168 2.84217e-014 0 20.8184 7.43033 -4.07144 -4.01401 23.8974 -0.31355 -15.9314 -1.84656 1.97971 -14.6104 -2.84217e-014 2.84217e-014 18.7947 6.38912 4.27273 -28.8903 -2.84217e-014 0 -9.00276 -4.90204 2.76082 -28.8168 0 -2.84217e-014 -11.0293 -2.71861 -20.2011 10.0615 0 2.84217e-014 5.23687 0.312224 -7.90251 0 -36.0896 -2.84217e-014 -4.59412 11.868 -24.4979 0 -47.1136 -2.84217e-014 14.4305 -14.0317 39.7916 0 -6.53997 15.0922 2.20695e-032 -7.95139e-016 1.59028e-015 -10.0615 0 2.84217e-014 -4.13966 0.915214 3.50137 0 -36.0896 0 4.86825 9.61011 2.23462 -3.55271e-015 -47.1136 0 -6.4143 -18.2129 -11.6163 -7.10543e-015 -6.53997 15.0922 0 7.95139e-016 -0 
0 0 0 0 0 -0 -4.98932 82.5622 -208.623 -0.918219 1.33097 2.90553 -8.88178e-016 8.25043 0 0.193906 -5.77172 1.46056 -1.77636e-015 26.9735 0 -2.74666 -3.14019 1.37548 0 26.8627 2.44206 7.12393 24.0095 11.677 0 14.0861 -2.0123 -8.39983 7.04262 12.0273 4.03461 23.8974 -0.31355 19.3896 -1.81817 -0.935861 14.6104 0 2.84217e-014 -22.8363 -8.83806 -2.98579 28.8903 0 0 -2.74847 8.09385 3.52379 28.8168 0 -2.84217e-014 20.7908 7.43573 -4.07988 -4.01401 23.8974 -0.31355 -15.9356 -1.84528 1.98294 -14.6104 0 0 18.7953 6.39018 4.27272 -28.8903 0 0 -8.99806 -4.89652 2.76076 -28.8168 0 0 -11.0342 -2.71398 -20.1846 10.0615 0 0 5.23019 0.326486 -7.90941 -3.55271e-015 -36.0896 0 -4.65101 11.8756 -24.2575 0 -47.1136 0 14.4323 -14.0466 39.7176 0 -6.53997 15.0922 -6.95746e-016 7.95139e-016 1.59028e-015 -10.0615 0 0 -4.14306 0.929664 3.54037 0 -36.0896 2.84217e-014 4.87922 9.59684 2.16264 3.55271e-015 -47.1136 0 -6.38764 -18.2108 -11.5799 0 -6.53997 15.0922 -3.23025e-016 7.95139e-016 -0 
0 0 0 0 0 -0 -4.99218 82.5622 -208.614 -0.919839 1.32958 2.90411 -1.77636e-015 8.25043 0 0.198613 -5.75901 1.46277 0 26.9735 2.84217e-014 -2.75419 -3.14928 1.37708 0 26.8627 2.44206 7.12328 23.9977 11.6776 -1.42109e-014 14.0861 -2.0123 -8.37734 7.07027 12.0286 4.03461 23.8974 -0.31355 19.3981 -1.83132 -0.941104 14.6104 0 0 -22.8378 -8.83858 -2.99657 28.8903 -2.84217e-014 0 -2.77037 8.13758 3.57637 28.8168 0 2.84217e-014 20.7962 7.43906 -4.31149 -4.01401 23.8974 -0.31355 -15.9348 -1.84422 1.98518 -14.6104 2.84217e-014 0 18.7819 6.37935 4.27248 -28.8903 2.84217e-014 2.84217e-014 -8.98493 -4.92114 2.78767 -28.8168 2.84217e-014 0 -10.9598 -2.74785 -20.2085 10.0615 0 2.84217e-014 5.23444 0.340731 -7.91021 -3.55271e-015 -36.0896 -2.84217e-014 -4.58722 11.8574 -24.4786 0 -47.1136 2.84217e-014 14.421 -14.0374 39.7926 0 -6.53997 15.0922 -1.49089e-015 0 -1.59028e-015 -10.0615 0 0 -4.13171 0.934139 3.52765 0 -36.0896 0 4.86374 9.60789 2.19612 -7.10543e-015 -47.1136 2.84217e-014 -6.42661 -18.2209 -11.597 -3.55271e-015 -6.53997 15.0922 6.70898e-016 -1.59028e-015 -0 
